HIERARCHY
ROOT Hips
{
	OFFSET 0.000000 0.000000 0.000000
	CHANNELS 6 Xposition Yposition Zposition Xrotation Yrotation Zrotation
	JOINT Thigh.L
	{
		OFFSET 0.054031 0.026507 -0.093698
		CHANNELS 3 Xrotation Yrotation Zrotation
		JOINT Shin.L
		{
			OFFSET 0.060521 0.005697 -0.415224
			CHANNELS 3 Xrotation Yrotation Zrotation
			JOINT Foot.L
			{
				OFFSET -0.041254 0.030935 -0.441551
				CHANNELS 3 Xrotation Yrotation Zrotation
				JOINT Toe.L
				{
					OFFSET 0.047832 -0.127115 -0.065095
					CHANNELS 3 Xrotation Yrotation Zrotation
					End Site
					{
						OFFSET 0.000000 0.050000 0.000000
					}
				}
			}
		}
	}
	JOINT Thigh.R
	{
		OFFSET -0.059148 0.020741 -0.106469
		CHANNELS 3 Xrotation Yrotation Zrotation
		JOINT Shin.R
		{
			OFFSET -0.049570 0.013709 -0.396331
			CHANNELS 3 Xrotation Yrotation Zrotation
			JOINT Foot.R
			{
				OFFSET 0.013590 0.019191 -0.450778
				CHANNELS 3 Xrotation Yrotation Zrotation
				JOINT Toe.R
				{
					OFFSET -0.039482 -0.128015 -0.064861
					CHANNELS 3 Xrotation Yrotation Zrotation
					End Site
					{
						OFFSET 0.000000 0.050000 0.000000
					}
				}
			}
		}
	}
	JOINT Spine
	{
		OFFSET -0.002532 0.027765 0.113070
		CHANNELS 3 Xrotation Yrotation Zrotation
		JOINT Spine.2
		{
			OFFSET 0.008770 0.007151 0.139434
			CHANNELS 3 Xrotation Yrotation Zrotation
			JOINT Chest
			{
				OFFSET -0.010693 -0.022263 0.055983
				CHANNELS 3 Xrotation Yrotation Zrotation
				JOINT Neck
				{
					OFFSET -0.012081 0.024920 0.168020
					CHANNELS 3 Xrotation Yrotation Zrotation
					JOINT Head
					{
						OFFSET 0.025419 -0.021013 0.167033
						CHANNELS 3 Xrotation Yrotation Zrotation
						End Site
						{
							OFFSET 0.000000 0.050000 0.000000
						}
					}
				}
				JOINT Clavicle.L
				{
					OFFSET 0.047410 0.004394 0.086558
					CHANNELS 3 Xrotation Yrotation Zrotation
					JOINT UpperArm.L
					{
						OFFSET 0.127428 0.013652 0.057491
						CHANNELS 3 Xrotation Yrotation Zrotation
						JOINT ForeArm.L
						{
							OFFSET 0.271145 0.043010 -0.075354
							CHANNELS 3 Xrotation Yrotation Zrotation
							JOINT Hand.L
							{
								OFFSET 0.276049 0.000601 0.022167
								CHANNELS 3 Xrotation Yrotation Zrotation
								JOINT Thumb1.L
								{
									OFFSET 0.154615 0.000261 0.009605
									CHANNELS 3 Xrotation Yrotation Zrotation
									JOINT Thumb2.L
									{
										OFFSET 0.029904 0.000065 0.002401
										CHANNELS 3 Xrotation Yrotation Zrotation
										End Site
										{
											OFFSET 0.024920 0.000054 0.002001
										}
									}
								}
								JOINT Index1.L
								{
									OFFSET 0.137615 0.000261 0.009605
									CHANNELS 3 Xrotation Yrotation Zrotation
									JOINT Index2.L
									{
										OFFSET 0.029904 0.000065 0.002401
										CHANNELS 3 Xrotation Yrotation Zrotation
										JOINT Index3.L
										{
											OFFSET 0.021929 0.000048 0.001761
											CHANNELS 3 Xrotation Yrotation Zrotation
											End Site
											{
												OFFSET 0.017942 0.000039 0.001441
											}
										}
									}
								}
								JOINT Middle1.L
								{
									OFFSET 0.119615 0.000261 0.009605
									CHANNELS 3 Xrotation Yrotation Zrotation
									JOINT Middle2.L
									{
										OFFSET 0.030900 0.000067 0.002481
										CHANNELS 3 Xrotation Yrotation Zrotation
										JOINT Middle3.L
										{
											OFFSET 0.021929 0.000048 0.001761
											CHANNELS 3 Xrotation Yrotation Zrotation
											End Site
											{
												OFFSET 0.017942 0.000039 0.001441
											}
										}
									}
								}
								JOINT Ring1.L
								{
									OFFSET 0.101615 0.000261 0.009605
									CHANNELS 3 Xrotation Yrotation Zrotation
									JOINT Ring2.L
									{
										OFFSET 0.028907 0.000063 0.002321
										CHANNELS 3 Xrotation Yrotation Zrotation
										JOINT Ring3.L
										{
											OFFSET 0.019936 0.000043 0.001601
											CHANNELS 3 Xrotation Yrotation Zrotation
											End Site
											{
												OFFSET 0.016945 0.000037 0.001361
											}
										}
									}
								}
								JOINT Pinky1.L
								{
									OFFSET 0.085615 0.000261 0.009605
									CHANNELS 3 Xrotation Yrotation Zrotation
									JOINT Pinky2.L
									{
										OFFSET 0.023923 0.000052 0.001921
										CHANNELS 3 Xrotation Yrotation Zrotation
										JOINT Pinky3.L
										{
											OFFSET 0.016945 0.000037 0.001361
											CHANNELS 3 Xrotation Yrotation Zrotation
											End Site
											{
												OFFSET 0.013955 0.000030 0.001121
											}
										}
									}
								}
							}
						}
					}
				}
				JOINT Clavicle.R
				{
					OFFSET -0.048149 0.010550 0.085643
					CHANNELS 3 Xrotation Yrotation Zrotation
					JOINT UpperArm.R
					{
						OFFSET -0.110649 0.009857 0.053782
						CHANNELS 3 Xrotation Yrotation Zrotation
						JOINT ForeArm.R
						{
							OFFSET -0.289551 0.027938 -0.039979
							CHANNELS 3 Xrotation Yrotation Zrotation
							JOINT Hand.R
							{
								OFFSET -0.272229 0.014162 -0.005316
								CHANNELS 3 Xrotation Yrotation Zrotation
								JOINT Thumb1.R
								{
									OFFSET -0.154815 0.006233 -0.002340
									CHANNELS 3 Xrotation Yrotation Zrotation
									JOINT Thumb2.R
									{
										OFFSET -0.029954 0.001558 -0.000585
										CHANNELS 3 Xrotation Yrotation Zrotation
										End Site
										{
											OFFSET -0.024961 0.001299 -0.000487
										}
									}
								}
								JOINT Index1.R
								{
									OFFSET -0.137815 0.006233 -0.002340
									CHANNELS 3 Xrotation Yrotation Zrotation
									JOINT Index2.R
									{
										OFFSET -0.029954 0.001558 -0.000585
										CHANNELS 3 Xrotation Yrotation Zrotation
										JOINT Index3.R
										{
											OFFSET -0.021966 0.001143 -0.000429
											CHANNELS 3 Xrotation Yrotation Zrotation
											End Site
											{
												OFFSET -0.017972 0.000935 -0.000351
											}
										}
									}
								}
								JOINT Middle1.R
								{
									OFFSET -0.119815 0.006233 -0.002340
									CHANNELS 3 Xrotation Yrotation Zrotation
									JOINT Middle2.R
									{
										OFFSET -0.030952 0.001610 -0.000604
										CHANNELS 3 Xrotation Yrotation Zrotation
										JOINT Middle3.R
										{
											OFFSET -0.021966 0.001143 -0.000429
											CHANNELS 3 Xrotation Yrotation Zrotation
											End Site
											{
												OFFSET -0.017972 0.000935 -0.000351
											}
										}
									}
								}
								JOINT Ring1.R
								{
									OFFSET -0.101815 0.006233 -0.002340
									CHANNELS 3 Xrotation Yrotation Zrotation
									JOINT Ring2.R
									{
										OFFSET -0.028955 0.001506 -0.000565
										CHANNELS 3 Xrotation Yrotation Zrotation
										JOINT Ring3.R
										{
											OFFSET -0.019969 0.001039 -0.000390
											CHANNELS 3 Xrotation Yrotation Zrotation
											End Site
											{
												OFFSET -0.016974 0.000883 -0.000331
											}
										}
									}
								}
								JOINT Pinky1.R
								{
									OFFSET -0.085815 0.006233 -0.002340
									CHANNELS 3 Xrotation Yrotation Zrotation
									JOINT Pinky2.R
									{
										OFFSET -0.023963 0.001247 -0.000468
										CHANNELS 3 Xrotation Yrotation Zrotation
										JOINT Pinky3.R
										{
											OFFSET -0.016974 0.000883 -0.000331
											CHANNELS 3 Xrotation Yrotation Zrotation
											End Site
											{
												OFFSET -0.013978 0.000727 -0.000273
											}
										}
									}
								}
							}
						}
					}
				}
			}
		}
	}
}
MOTION
Frames: 5
Frame Time: 0.03333333
0.989799 0.463699 1.124141 -2.142619 4.061809 -57.670095 8.540297 1.883871 1.238117 -0.982712 2.226672 -16.745976 -9.603901 -4.826205 10.396411 -0.823924 -1.739658 -0.980464 -27.027185 4.444488 0.732850 47.962887 -7.452047 -5.734027 -1.447811 -1.727844 -11.538203 -0.784360 -2.118465 0.553006 14.314768 2.411500 -2.907744 -2.824496 -2.197595 -0.320318 2.664078 -1.005649 -0.886184 3.598357 0.924462 -2.517770 -3.648655 -3.453743 -5.017817 -1.359853 16.636389 -4.455593 21.868445 43.367559 -34.237408 6.480604 -3.914912 -27.276361 2.456662 -0.095412 -11.504833 0.000000 0.000000 0.000000 0.000000 0.000000 0.000000 0.000000 0.000000 0.000000 0.000000 0.000000 0.000000 0.000000 0.000000 0.000000 0.000000 0.000000 0.000000 0.000000 0.000000 0.000000 0.000000 0.000000 0.000000 0.000000 0.000000 0.000000 0.000000 0.000000 0.000000 0.000000 0.000000 0.000000 0.000000 0.000000 0.000000 0.000000 0.000000 0.000000 0.000000 0.000000 0.000000 1.178550 -19.254995 5.674992 20.331741 -45.891661 13.658675 4.420413 -0.180047 19.573689 -0.372031 -6.090433 9.502002 0.000000 0.000000 0.000000 0.000000 0.000000 0.000000 0.000000 0.000000 0.000000 0.000000 0.000000 0.000000 0.000000 0.000000 0.000000 0.000000 0.000000 0.000000 0.000000 0.000000 0.000000 0.000000 0.000000 0.000000 0.000000 0.000000 0.000000 0.000000 0.000000 0.000000 0.000000 0.000000 0.000000 0.000000 0.000000 0.000000 0.000000 0.000000 0.000000 0.000000 0.000000 0.000000
1.000262 0.459193 1.121317 -1.948448 3.964528 -56.617650 11.548270 1.426156 2.105435 -2.301519 1.842048 -18.346044 -10.618517 -4.172212 9.292236 -0.889693 -1.351095 -0.972679 -27.814378 4.522785 0.841152 37.261128 -6.023125 -7.125206 -1.665958 -2.513391 -12.433074 -0.887730 -2.231891 0.500772 14.889428 2.301218 -3.733417 -3.109079 -2.603533 -0.584764 2.773813 -1.411080 -1.346212 2.957344 1.054516 -3.272890 -3.330707 -3.858584 -5.560157 -1.565494 16.170093 -4.612001 20.987978 42.645425 -35.982795 4.846903 -3.773853 -29.560650 1.355472 -0.827503 -12.082562 0.000000 0.000000 0.000000 0.000000 0.000000 0.000000 0.000000 0.000000 0.000000 0.000000 0.000000 0.000000 0.000000 0.000000 0.000000 0.000000 0.000000 0.000000 0.000000 0.000000 0.000000 0.000000 0.000000 0.000000 0.000000 0.000000 0.000000 0.000000 0.000000 0.000000 0.000000 0.000000 0.000000 0.000000 0.000000 0.000000 0.000000 0.000000 0.000000 0.000000 0.000000 0.000000 0.953961 -19.261732 4.605395 20.049152 -45.944044 12.329570 2.806759 -0.515752 18.004247 -0.187303 -6.445700 8.909292 0.000000 0.000000 0.000000 0.000000 0.000000 0.000000 0.000000 0.000000 0.000000 0.000000 0.000000 0.000000 0.000000 0.000000 0.000000 0.000000 0.000000 0.000000 0.000000 0.000000 0.000000 0.000000 0.000000 0.000000 0.000000 0.000000 0.000000 0.000000 0.000000 0.000000 0.000000 0.000000 0.000000 0.000000 0.000000 0.000000 0.000000 0.000000 0.000000 0.000000 0.000000 0.000000
1.011338 0.450819 1.116858 -2.331917 3.907703 -55.752851 14.612564 1.259233 3.093074 -2.559053 1.733819 -19.609792 -11.991735 -3.775264 8.228147 -0.954951 -1.078343 -0.936665 -27.250135 4.768221 0.664879 26.314699 -3.964874 -7.468423 -1.857115 -3.777679 -12.702004 -0.916263 -2.247285 0.394285 15.142516 2.332233 -4.365170 -3.060282 -2.766045 -0.766563 3.005424 -1.726551 -1.768212 2.471594 1.162616 -3.517058 -2.982632 -4.046294 -5.444754 -1.738409 15.903658 -4.724698 20.146153 41.899758 -37.180245 3.662792 -3.976983 -31.882516 0.393491 -2.003632 -12.612028 0.000000 0.000000 0.000000 0.000000 0.000000 0.000000 0.000000 0.000000 0.000000 0.000000 0.000000 0.000000 0.000000 0.000000 0.000000 0.000000 0.000000 0.000000 0.000000 0.000000 0.000000 0.000000 0.000000 0.000000 0.000000 0.000000 0.000000 0.000000 0.000000 0.000000 0.000000 0.000000 0.000000 0.000000 0.000000 0.000000 0.000000 0.000000 0.000000 0.000000 0.000000 0.000000 0.741867 -19.462045 3.731710 19.987528 -46.037983 11.550891 1.239647 -0.659305 16.608305 -0.016856 -6.245210 8.536674 0.000000 0.000000 0.000000 0.000000 0.000000 0.000000 0.000000 0.000000 0.000000 0.000000 0.000000 0.000000 0.000000 0.000000 0.000000 0.000000 0.000000 0.000000 0.000000 0.000000 0.000000 0.000000 0.000000 0.000000 0.000000 0.000000 0.000000 0.000000 0.000000 0.000000 0.000000 0.000000 0.000000 0.000000 0.000000 0.000000 0.000000 0.000000 0.000000 0.000000 0.000000 0.000000
1.024379 0.460309 1.110829 -3.040886 3.663007 -55.262660 17.493858 1.298372 4.072367 -2.173962 1.799135 -20.763754 -14.258902 -3.533027 7.125666 -0.950645 -0.870912 -0.945833 -26.101365 5.195789 -0.064322 15.560265 -1.847666 -7.556788 -1.844298 -5.316232 -12.614731 -0.779461 -2.244596 0.177061 15.322836 2.488372 -4.685465 -2.742766 -2.860052 -0.961927 3.141960 -2.009990 -2.075369 1.885146 1.407638 -3.981111 -2.810950 -4.262067 -5.514059 -1.997712 15.590333 -4.924750 19.328916 41.278216 -38.151176 2.794829 -4.423944 -33.978201 0.148547 -2.774162 -13.247886 0.000000 0.000000 0.000000 0.000000 0.000000 0.000000 0.000000 0.000000 0.000000 0.000000 0.000000 0.000000 0.000000 0.000000 0.000000 0.000000 0.000000 0.000000 0.000000 0.000000 0.000000 0.000000 0.000000 0.000000 0.000000 0.000000 0.000000 0.000000 0.000000 0.000000 0.000000 0.000000 0.000000 0.000000 0.000000 0.000000 0.000000 0.000000 0.000000 0.000000 0.000000 0.000000 0.587559 -19.508876 3.132999 19.943930 -46.217802 10.637000 0.214457 -0.581063 15.755950 0.753940 -6.427605 8.266566 0.000000 0.000000 0.000000 0.000000 0.000000 0.000000 0.000000 0.000000 0.000000 0.000000 0.000000 0.000000 0.000000 0.000000 0.000000 0.000000 0.000000 0.000000 0.000000 0.000000 0.000000 0.000000 0.000000 0.000000 0.000000 0.000000 0.000000 0.000000 0.000000 0.000000 0.000000 0.000000 0.000000 0.000000 0.000000 0.000000 0.000000 0.000000 0.000000 0.000000 0.000000 0.000000
1.044852 0.446552 1.103426 -4.217244 2.321426 -55.191380 20.030730 1.169557 5.108538 -1.806393 1.344950 -22.327755 -17.304378 -3.124482 4.708358 -0.757381 -0.197445 -1.013200 -24.189878 5.918827 -1.916334 1.780437 0.976182 -7.887621 -2.013517 -7.877689 -12.061078 -0.382590 -2.002266 -0.261384 15.189060 3.021835 -4.970315 -2.980081 -2.881457 -1.238532 3.443962 -2.202575 -2.399916 1.636473 1.946901 -4.829047 -2.950009 -4.476351 -5.541534 -2.110142 15.313229 -5.124809 17.819628 40.761915 -37.696427 2.386416 -5.337990 -36.187590 -0.323505 -4.390515 -14.187095 0.000000 0.000000 0.000000 0.000000 0.000000 0.000000 0.000000 0.000000 0.000000 0.000000 0.000000 0.000000 0.000000 0.000000 0.000000 0.000000 0.000000 0.000000 0.000000 0.000000 0.000000 0.000000 0.000000 0.000000 0.000000 0.000000 0.000000 0.000000 0.000000 0.000000 0.000000 0.000000 0.000000 0.000000 0.000000 0.000000 0.000000 0.000000 0.000000 0.000000 0.000000 0.000000 0.815798 -19.133783 2.540887 19.978095 -46.835664 9.923918 0.298085 -0.499427 15.179223 1.868135 -5.988052 8.234695 0.000000 0.000000 0.000000 0.000000 0.000000 0.000000 0.000000 0.000000 0.000000 0.000000 0.000000 0.000000 0.000000 0.000000 0.000000 0.000000 0.000000 0.000000 0.000000 0.000000 0.000000 0.000000 0.000000 0.000000 0.000000 0.000000 0.000000 0.000000 0.000000 0.000000 0.000000 0.000000 0.000000 0.000000 0.000000 0.000000 0.000000 0.000000 0.000000 0.000000 0.000000 0.000000
